<svg xmlns="http://www.w3.org/2000/svg" width="380" height="380" viewBox="0 0 380 380"><g><path fill="#030003" d="M 214.74 344.40 C203.32,347.71 193.16,349.09 192.21,347.45 C191.82,346.78 182.95,336.64 172.50,324.92 C162.05,313.20 151.71,301.56 149.51,299.05 C147.32,296.55 141.33,289.88 136.21,284.23 C131.09,278.59 127.17,273.53 127.51,272.98 C127.90,272.35 151.51,272.00 193.06,272.00 L 258.00 272.00 L 258.00 227.00 L 178.00 227.00 L 178.00 159.00 C178.00,118.84 178.37,91.00 178.91,91.00 C179.41,91.00 181.65,94.26 183.89,98.25 C186.14,102.24 193.79,114.95 200.91,126.50 C219.92,157.37 234.02,180.43 238.11,187.37 C240.10,190.74 247.26,202.50 254.03,213.50 C260.79,224.50 268.88,237.77 272.00,243.00 C275.12,248.23 281.34,258.50 285.83,265.84 C290.33,273.18 294.00,279.54 294.00,279.98 C294.00,281.74 279.26,300.06 271.15,308.37 C254.55,325.38 233.10,339.08 214.74,344.40 Z"/><path fill="#FA0102" d="M 126.03 271.25 C126.01,271.66 155.70,272.00 192.00,272.00 C151.11,272.01 127.90,272.36 127.51,272.98 C127.17,273.53 131.09,278.59 136.21,284.23 C141.33,289.88 147.32,296.55 149.51,299.05 C151.71,301.56 162.05,313.20 172.50,324.92 C182.95,336.64 191.82,346.78 192.21,347.45 C192.54,348.02 193.98,348.23 196.20,348.11 C177.06,350.11 157.42,346.73 140.54,338.30 C97.72,316.92 63.63,269.09 42.67,201.00 C30.46,161.33 27.74,122.60 35.14,93.50 C42.59,64.17 62.63,43.22 88.32,37.92 C99.46,35.62 105.09,35.54 116.39,37.51 C138.08,41.29 158.23,52.22 176.52,70.13 C180.39,73.91 183.93,77.00 184.41,77.00 C184.88,77.00 188.47,73.96 192.38,70.24 C218.80,45.16 253.37,31.85 280.56,36.30 C304.27,40.18 321.61,53.45 333.07,76.50 C348.33,107.19 348.24,151.86 332.83,198.50 C322.09,230.99 308.97,258.53 293.59,280.96 C293.86,280.49 294.00,280.15 294.00,279.98 C294.00,279.54 290.33,273.18 285.83,265.84 C281.34,258.50 275.12,248.23 272.00,243.00 C268.88,237.77 260.79,224.50 254.03,213.50 C247.26,202.50 240.10,190.74 238.11,187.37 C234.02,180.43 219.92,157.37 200.91,126.50 C193.79,114.95 186.14,102.24 183.89,98.25 C181.65,94.26 179.41,91.00 178.91,91.00 C178.37,91.00 178.00,118.84 178.00,159.00 C178.00,121.68 177.73,90.45 177.39,89.58 C176.86,88.20 173.67,88.00 151.93,88.00 C129.27,88.00 126.99,88.15 126.16,89.75 C125.62,90.79 125.41,128.06 125.65,181.00 C125.88,230.23 126.05,270.84 126.03,271.25 ZM 241.15 332.31 C251.73,325.84 262.15,317.59 271.15,308.37 C276.13,303.27 283.59,294.42 288.62,287.92 C277.70,302.61 265.70,314.87 252.68,324.64 C249.10,327.32 245.20,329.90 241.15,332.31 ZM 210.50 345.58 C209.53,345.82 208.55,346.05 207.58,346.27 C209.40,345.85 211.31,345.36 213.27,344.82 C212.33,345.09 211.41,345.35 210.50,345.58 Z"/><path fill="#FA02DF" d="M 126.03 271.25 C126.05,270.84 125.88,230.23 125.65,181.00 C125.41,128.06 125.62,90.79 126.16,89.75 C126.99,88.15 129.27,88.00 151.93,88.00 C173.67,88.00 176.86,88.20 177.39,89.58 C177.73,90.45 178.00,121.68 178.00,159.00 L 178.00 227.00 L 258.00 227.00 L 258.00 272.00 L 192.00 272.00 C155.70,272.00 126.01,271.66 126.03,271.25 Z"/><path fill="#FEFEFE" d="M 0.00 190.00 L 0.00 0.00 L 190.00 0.00 L 380.00 0.00 L 380.00 190.00 L 380.00 380.00 L 190.00 380.00 L 0.00 380.00 L 0.00 190.00 ZM 210.50 345.58 C223.55,342.28 240.11,334.06 252.68,324.64 C286.62,299.19 313.56,256.80 332.83,198.50 C348.24,151.86 348.33,107.19 333.07,76.50 C321.61,53.45 304.27,40.18 280.56,36.30 C253.37,31.85 218.80,45.16 192.38,70.24 C188.47,73.96 184.88,77.00 184.41,77.00 C183.93,77.00 180.39,73.91 176.52,70.13 C158.23,52.22 138.08,41.29 116.39,37.51 C105.09,35.54 99.46,35.62 88.32,37.92 C62.63,43.22 42.59,64.17 35.14,93.50 C27.74,122.60 30.46,161.33 42.67,201.00 C63.63,269.09 97.72,316.92 140.54,338.30 C161.67,348.85 187.10,351.49 210.50,345.58 Z"/></g></svg>